<svg id="Layer_1" data-name="Layer 1" xmlns="http://www.w3.org/2000/svg" width="2500" height="2500" viewBox="0 0 2500 2500"><defs><style>.cls-1{fill:#2b746f;}.cls-2{fill:none;stroke:#fff;stroke-linecap:round;stroke-linejoin:round;stroke-width:40px;}.cls-3{fill:#fff;}</style></defs><circle class="cls-1" cx="1260.5" cy="1250.5" r="1059.5"/><path class="cls-2" d="M753,1851l117.26-87.47s35.38-30.92,99.06-11.73S1271.87,1837,1271.87,1837s86.77,27.79,138.45-3.1S1795,1564,1795,1564s58-52,20-106-88-19-88-19l-22.92,15.37L1446,1639"/><path class="cls-2" d="M1362,1539l231-153.19s36.06-29.21,72,16.49,39.06,52.07,39.06,52.07"/><path class="cls-2" d="M1256,1494l186.24-123s36.87-27,57.82,0,37.61,51.49,37.61,51.49"/><path class="cls-2" d="M582,1648l306-240s59-42.4,149.51-5.7S1426,1566,1426,1566s37,32,10,87-77,30.66-77,30.66L1092,1585"/><circle class="cls-2" cx="1248.5" cy="902" r="315"/><path class="cls-3" d="M1246.34,1107.76q-9.85,0-16.12-6.49a22,22,0,0,1-6.27-15.9v-30.45q-27.32-1.79-48.58-8.73a205,205,0,0,1-36.5-15.45q-10.3-5.81-12.76-15.67a29.93,29.93,0,0,1,1.12-18.81,21.79,21.79,0,0,1,12.09-12.53q8.51-3.59,20.15,3.13,12.52,7.17,32.91,13.66t49,6.49q33.58,0,48.36-11.87t14.78-29.77q0-14.77-10.3-24.18T1257.53,926l-47.46-10.3q-81.06-17.46-81-85.07,0-37.62,25.75-63.37T1224,736.1V704.31a22,22,0,0,1,6.27-15.9q6.27-6.48,16.12-6.49a22.16,22.16,0,0,1,22.39,22.39v31.34a173,173,0,0,1,37.84,8.51,114.83,114.83,0,0,1,34.7,18.36q8.51,6.72,9.85,15.45a24.07,24.07,0,0,1-2.91,16.12,20.83,20.83,0,0,1-13,9.85q-8.73,2.47-20.37-4.25a129,129,0,0,0-29.1-12.32q-16.12-4.7-38.51-4.7-28.66,0-45,12.76t-16.34,33.36q0,15.24,9.85,24.41t33.58,14.55l48.81,10.75q43,9.4,63.14,29.78t20.15,53.5q0,37.62-25.75,61.57t-66.94,30.23v31.79a22,22,0,0,1-6.27,15.9Q1256.19,1107.75,1246.34,1107.76Z"/></svg>